M48
; DRILL file {KiCad 9.0.5} date 2025-10-26T22:29:03+0530
; FORMAT={-:-/ absolute / metric / decimal}
; #@! TF.CreationDate,2025-10-26T22:29:03+05:30
; #@! TF.GenerationSoftware,Kicad,Pcbnew,9.0.5
; #@! TF.FileFunction,Plated,1,2,PTH
FMAT,2
METRIC
; #@! TA.AperFunction,Plated,PTH,ViaDrill
T1C0.300
; #@! TA.AperFunction,Plated,PTH,ComponentDrill
T2C0.750
; #@! TA.AperFunction,Plated,PTH,ComponentDrill
T3C0.762
; #@! TA.AperFunction,Plated,PTH,ComponentDrill
T4C0.800
; #@! TA.AperFunction,Plated,PTH,ComponentDrill
T5C1.000
; #@! TA.AperFunction,Plated,PTH,ComponentDrill
T6C1.100
; #@! TA.AperFunction,Plated,PTH,ComponentDrill
T7C1.300
; #@! TA.AperFunction,Plated,PTH,ComponentDrill
T8C3.200
%
G90
G05
T1
X47.0Y-97.5
X56.0Y-116.0
X66.0Y-90.5
X68.5Y-111.0
X83.5Y-106.5
X87.5Y-108.0
T2
X81.36Y-100.23
X81.36Y-101.5
X81.36Y-102.77
X91.0Y-100.0
X91.0Y-101.27
X91.0Y-102.54
T3
X64.25Y-97.75
X64.25Y-100.29
X64.25Y-102.83
X64.25Y-105.37
X72.25Y-97.75
X72.25Y-100.29
X72.25Y-102.83
X72.25Y-105.37
T4
X39.0Y-93.0
X39.0Y-100.62
X39.0Y-103.19
X39.0Y-110.81
X53.69Y-98.0
X61.31Y-98.0
X68.0Y-82.19
X68.0Y-89.81
T5
X44.46Y-122.0
X46.75Y-82.05
X46.75Y-94.05
X47.0Y-122.0
X49.54Y-122.0
X55.92Y-121.5
X58.46Y-121.5
X61.0Y-121.5
X66.5Y-121.0
X69.04Y-121.0
X78.25Y-81.55
X78.25Y-93.55
X78.45Y-109.05
X78.45Y-121.05
T6
X33.5Y-96.42
X33.5Y-106.58
T7
X33.328Y-82.455
X33.328Y-87.535
X33.5Y-115.0
X33.5Y-120.08
X44.8Y-88.0
X58.95Y-94.05
X59.0Y-82.0
X76.3Y-87.5
X76.5Y-115.0
X90.45Y-93.55
X90.5Y-81.5
X90.65Y-121.05
X90.7Y-109.0
X102.172Y-82.465
X102.172Y-87.545
X102.172Y-114.965
X102.172Y-120.045
X102.5Y-96.42
X102.5Y-101.5
X102.5Y-106.58
T8
X51.5Y-115.5
M30
