%TF.GenerationSoftware,KiCad,Pcbnew,9.0.5*%
%TF.CreationDate,2025-10-26T22:28:50+05:30*%
%TF.ProjectId,first pcb,66697273-7420-4706-9362-2e6b69636164,rev?*%
%TF.SameCoordinates,Original*%
%TF.FileFunction,Legend,Top*%
%TF.FilePolarity,Positive*%
%FSLAX46Y46*%
G04 Gerber Fmt 4.6, Leading zero omitted, Abs format (unit mm)*
G04 Created by KiCad (PCBNEW 9.0.5) date 2025-10-26 22:28:50*
%MOMM*%
%LPD*%
G01*
G04 APERTURE LIST*
%ADD10C,0.150000*%
%ADD11C,0.100000*%
%ADD12C,0.120000*%
G04 APERTURE END LIST*
D10*
X83361905Y-123654819D02*
X83361905Y-124464342D01*
X83361905Y-124464342D02*
X83409524Y-124559580D01*
X83409524Y-124559580D02*
X83457143Y-124607200D01*
X83457143Y-124607200D02*
X83552381Y-124654819D01*
X83552381Y-124654819D02*
X83742857Y-124654819D01*
X83742857Y-124654819D02*
X83838095Y-124607200D01*
X83838095Y-124607200D02*
X83885714Y-124559580D01*
X83885714Y-124559580D02*
X83933333Y-124464342D01*
X83933333Y-124464342D02*
X83933333Y-123654819D01*
X84361905Y-124607200D02*
X84504762Y-124654819D01*
X84504762Y-124654819D02*
X84742857Y-124654819D01*
X84742857Y-124654819D02*
X84838095Y-124607200D01*
X84838095Y-124607200D02*
X84885714Y-124559580D01*
X84885714Y-124559580D02*
X84933333Y-124464342D01*
X84933333Y-124464342D02*
X84933333Y-124369104D01*
X84933333Y-124369104D02*
X84885714Y-124273866D01*
X84885714Y-124273866D02*
X84838095Y-124226247D01*
X84838095Y-124226247D02*
X84742857Y-124178628D01*
X84742857Y-124178628D02*
X84552381Y-124131009D01*
X84552381Y-124131009D02*
X84457143Y-124083390D01*
X84457143Y-124083390D02*
X84409524Y-124035771D01*
X84409524Y-124035771D02*
X84361905Y-123940533D01*
X84361905Y-123940533D02*
X84361905Y-123845295D01*
X84361905Y-123845295D02*
X84409524Y-123750057D01*
X84409524Y-123750057D02*
X84457143Y-123702438D01*
X84457143Y-123702438D02*
X84552381Y-123654819D01*
X84552381Y-123654819D02*
X84790476Y-123654819D01*
X84790476Y-123654819D02*
X84933333Y-123702438D01*
X84647619Y-123511961D02*
X84647619Y-124797676D01*
X85885714Y-124654819D02*
X85314286Y-124654819D01*
X85600000Y-124654819D02*
X85600000Y-123654819D01*
X85600000Y-123654819D02*
X85504762Y-123797676D01*
X85504762Y-123797676D02*
X85409524Y-123892914D01*
X85409524Y-123892914D02*
X85314286Y-123940533D01*
X40102319Y-88637857D02*
X40054700Y-88733095D01*
X40054700Y-88733095D02*
X39959461Y-88780714D01*
X39959461Y-88780714D02*
X39102319Y-88780714D01*
X40054700Y-87875952D02*
X40102319Y-87971190D01*
X40102319Y-87971190D02*
X40102319Y-88161666D01*
X40102319Y-88161666D02*
X40054700Y-88256904D01*
X40054700Y-88256904D02*
X39959461Y-88304523D01*
X39959461Y-88304523D02*
X39578509Y-88304523D01*
X39578509Y-88304523D02*
X39483271Y-88256904D01*
X39483271Y-88256904D02*
X39435652Y-88161666D01*
X39435652Y-88161666D02*
X39435652Y-87971190D01*
X39435652Y-87971190D02*
X39483271Y-87875952D01*
X39483271Y-87875952D02*
X39578509Y-87828333D01*
X39578509Y-87828333D02*
X39673747Y-87828333D01*
X39673747Y-87828333D02*
X39768985Y-88304523D01*
X40102319Y-86971190D02*
X39578509Y-86971190D01*
X39578509Y-86971190D02*
X39483271Y-87018809D01*
X39483271Y-87018809D02*
X39435652Y-87114047D01*
X39435652Y-87114047D02*
X39435652Y-87304523D01*
X39435652Y-87304523D02*
X39483271Y-87399761D01*
X40054700Y-86971190D02*
X40102319Y-87066428D01*
X40102319Y-87066428D02*
X40102319Y-87304523D01*
X40102319Y-87304523D02*
X40054700Y-87399761D01*
X40054700Y-87399761D02*
X39959461Y-87447380D01*
X39959461Y-87447380D02*
X39864223Y-87447380D01*
X39864223Y-87447380D02*
X39768985Y-87399761D01*
X39768985Y-87399761D02*
X39721366Y-87304523D01*
X39721366Y-87304523D02*
X39721366Y-87066428D01*
X39721366Y-87066428D02*
X39673747Y-86971190D01*
X40102319Y-86066428D02*
X39102319Y-86066428D01*
X40054700Y-86066428D02*
X40102319Y-86161666D01*
X40102319Y-86161666D02*
X40102319Y-86352142D01*
X40102319Y-86352142D02*
X40054700Y-86447380D01*
X40054700Y-86447380D02*
X40007080Y-86494999D01*
X40007080Y-86494999D02*
X39911842Y-86542618D01*
X39911842Y-86542618D02*
X39626128Y-86542618D01*
X39626128Y-86542618D02*
X39530890Y-86494999D01*
X39530890Y-86494999D02*
X39483271Y-86447380D01*
X39483271Y-86447380D02*
X39435652Y-86352142D01*
X39435652Y-86352142D02*
X39435652Y-86161666D01*
X39435652Y-86161666D02*
X39483271Y-86066428D01*
X40197557Y-85828333D02*
X40197557Y-85066428D01*
X40102319Y-84399761D02*
X39578509Y-84399761D01*
X39578509Y-84399761D02*
X39483271Y-84447380D01*
X39483271Y-84447380D02*
X39435652Y-84542618D01*
X39435652Y-84542618D02*
X39435652Y-84733094D01*
X39435652Y-84733094D02*
X39483271Y-84828332D01*
X40054700Y-84399761D02*
X40102319Y-84494999D01*
X40102319Y-84494999D02*
X40102319Y-84733094D01*
X40102319Y-84733094D02*
X40054700Y-84828332D01*
X40054700Y-84828332D02*
X39959461Y-84875951D01*
X39959461Y-84875951D02*
X39864223Y-84875951D01*
X39864223Y-84875951D02*
X39768985Y-84828332D01*
X39768985Y-84828332D02*
X39721366Y-84733094D01*
X39721366Y-84733094D02*
X39721366Y-84494999D01*
X39721366Y-84494999D02*
X39673747Y-84399761D01*
X40054700Y-83494999D02*
X40102319Y-83590237D01*
X40102319Y-83590237D02*
X40102319Y-83780713D01*
X40102319Y-83780713D02*
X40054700Y-83875951D01*
X40054700Y-83875951D02*
X40007080Y-83923570D01*
X40007080Y-83923570D02*
X39911842Y-83971189D01*
X39911842Y-83971189D02*
X39626128Y-83971189D01*
X39626128Y-83971189D02*
X39530890Y-83923570D01*
X39530890Y-83923570D02*
X39483271Y-83875951D01*
X39483271Y-83875951D02*
X39435652Y-83780713D01*
X39435652Y-83780713D02*
X39435652Y-83590237D01*
X39435652Y-83590237D02*
X39483271Y-83494999D01*
X40102319Y-83066427D02*
X39435652Y-83066427D01*
X39102319Y-83066427D02*
X39149938Y-83114046D01*
X39149938Y-83114046D02*
X39197557Y-83066427D01*
X39197557Y-83066427D02*
X39149938Y-83018808D01*
X39149938Y-83018808D02*
X39102319Y-83066427D01*
X39102319Y-83066427D02*
X39197557Y-83066427D01*
X40102319Y-82161666D02*
X39102319Y-82161666D01*
X40054700Y-82161666D02*
X40102319Y-82256904D01*
X40102319Y-82256904D02*
X40102319Y-82447380D01*
X40102319Y-82447380D02*
X40054700Y-82542618D01*
X40054700Y-82542618D02*
X40007080Y-82590237D01*
X40007080Y-82590237D02*
X39911842Y-82637856D01*
X39911842Y-82637856D02*
X39626128Y-82637856D01*
X39626128Y-82637856D02*
X39530890Y-82590237D01*
X39530890Y-82590237D02*
X39483271Y-82542618D01*
X39483271Y-82542618D02*
X39435652Y-82447380D01*
X39435652Y-82447380D02*
X39435652Y-82256904D01*
X39435652Y-82256904D02*
X39483271Y-82161666D01*
X40102319Y-81161666D02*
X40102319Y-81733094D01*
X40102319Y-81447380D02*
X39102319Y-81447380D01*
X39102319Y-81447380D02*
X39245176Y-81542618D01*
X39245176Y-81542618D02*
X39340414Y-81637856D01*
X39340414Y-81637856D02*
X39388033Y-81733094D01*
X96307319Y-86719285D02*
X96259700Y-86814523D01*
X96259700Y-86814523D02*
X96164461Y-86862142D01*
X96164461Y-86862142D02*
X95307319Y-86862142D01*
X96307319Y-86195475D02*
X96259700Y-86290713D01*
X96259700Y-86290713D02*
X96212080Y-86338332D01*
X96212080Y-86338332D02*
X96116842Y-86385951D01*
X96116842Y-86385951D02*
X95831128Y-86385951D01*
X95831128Y-86385951D02*
X95735890Y-86338332D01*
X95735890Y-86338332D02*
X95688271Y-86290713D01*
X95688271Y-86290713D02*
X95640652Y-86195475D01*
X95640652Y-86195475D02*
X95640652Y-86052618D01*
X95640652Y-86052618D02*
X95688271Y-85957380D01*
X95688271Y-85957380D02*
X95735890Y-85909761D01*
X95735890Y-85909761D02*
X95831128Y-85862142D01*
X95831128Y-85862142D02*
X96116842Y-85862142D01*
X96116842Y-85862142D02*
X96212080Y-85909761D01*
X96212080Y-85909761D02*
X96259700Y-85957380D01*
X96259700Y-85957380D02*
X96307319Y-86052618D01*
X96307319Y-86052618D02*
X96307319Y-86195475D01*
X96307319Y-85004999D02*
X95783509Y-85004999D01*
X95783509Y-85004999D02*
X95688271Y-85052618D01*
X95688271Y-85052618D02*
X95640652Y-85147856D01*
X95640652Y-85147856D02*
X95640652Y-85338332D01*
X95640652Y-85338332D02*
X95688271Y-85433570D01*
X96259700Y-85004999D02*
X96307319Y-85100237D01*
X96307319Y-85100237D02*
X96307319Y-85338332D01*
X96307319Y-85338332D02*
X96259700Y-85433570D01*
X96259700Y-85433570D02*
X96164461Y-85481189D01*
X96164461Y-85481189D02*
X96069223Y-85481189D01*
X96069223Y-85481189D02*
X95973985Y-85433570D01*
X95973985Y-85433570D02*
X95926366Y-85338332D01*
X95926366Y-85338332D02*
X95926366Y-85100237D01*
X95926366Y-85100237D02*
X95878747Y-85004999D01*
X96307319Y-84100237D02*
X95307319Y-84100237D01*
X96259700Y-84100237D02*
X96307319Y-84195475D01*
X96307319Y-84195475D02*
X96307319Y-84385951D01*
X96307319Y-84385951D02*
X96259700Y-84481189D01*
X96259700Y-84481189D02*
X96212080Y-84528808D01*
X96212080Y-84528808D02*
X96116842Y-84576427D01*
X96116842Y-84576427D02*
X95831128Y-84576427D01*
X95831128Y-84576427D02*
X95735890Y-84528808D01*
X95735890Y-84528808D02*
X95688271Y-84481189D01*
X95688271Y-84481189D02*
X95640652Y-84385951D01*
X95640652Y-84385951D02*
X95640652Y-84195475D01*
X95640652Y-84195475D02*
X95688271Y-84100237D01*
X96307319Y-83100237D02*
X96307319Y-83671665D01*
X96307319Y-83385951D02*
X95307319Y-83385951D01*
X95307319Y-83385951D02*
X95450176Y-83481189D01*
X95450176Y-83481189D02*
X95545414Y-83576427D01*
X95545414Y-83576427D02*
X95593033Y-83671665D01*
X96587200Y-103119047D02*
X96634819Y-103214285D01*
X96634819Y-103214285D02*
X96634819Y-103404761D01*
X96634819Y-103404761D02*
X96587200Y-103499999D01*
X96587200Y-103499999D02*
X96491961Y-103547618D01*
X96491961Y-103547618D02*
X96111009Y-103547618D01*
X96111009Y-103547618D02*
X96015771Y-103499999D01*
X96015771Y-103499999D02*
X95968152Y-103404761D01*
X95968152Y-103404761D02*
X95968152Y-103214285D01*
X95968152Y-103214285D02*
X96015771Y-103119047D01*
X96015771Y-103119047D02*
X96111009Y-103071428D01*
X96111009Y-103071428D02*
X96206247Y-103071428D01*
X96206247Y-103071428D02*
X96301485Y-103547618D01*
X96587200Y-102690475D02*
X96634819Y-102595237D01*
X96634819Y-102595237D02*
X96634819Y-102404761D01*
X96634819Y-102404761D02*
X96587200Y-102309523D01*
X96587200Y-102309523D02*
X96491961Y-102261904D01*
X96491961Y-102261904D02*
X96444342Y-102261904D01*
X96444342Y-102261904D02*
X96349104Y-102309523D01*
X96349104Y-102309523D02*
X96301485Y-102404761D01*
X96301485Y-102404761D02*
X96301485Y-102547618D01*
X96301485Y-102547618D02*
X96253866Y-102642856D01*
X96253866Y-102642856D02*
X96158628Y-102690475D01*
X96158628Y-102690475D02*
X96111009Y-102690475D01*
X96111009Y-102690475D02*
X96015771Y-102642856D01*
X96015771Y-102642856D02*
X95968152Y-102547618D01*
X95968152Y-102547618D02*
X95968152Y-102404761D01*
X95968152Y-102404761D02*
X96015771Y-102309523D01*
X95968152Y-101833332D02*
X96968152Y-101833332D01*
X96015771Y-101833332D02*
X95968152Y-101738094D01*
X95968152Y-101738094D02*
X95968152Y-101547618D01*
X95968152Y-101547618D02*
X96015771Y-101452380D01*
X96015771Y-101452380D02*
X96063390Y-101404761D01*
X96063390Y-101404761D02*
X96158628Y-101357142D01*
X96158628Y-101357142D02*
X96444342Y-101357142D01*
X96444342Y-101357142D02*
X96539580Y-101404761D01*
X96539580Y-101404761D02*
X96587200Y-101452380D01*
X96587200Y-101452380D02*
X96634819Y-101547618D01*
X96634819Y-101547618D02*
X96634819Y-101738094D01*
X96634819Y-101738094D02*
X96587200Y-101833332D01*
X95634819Y-101023808D02*
X95634819Y-100404761D01*
X95634819Y-100404761D02*
X96015771Y-100738094D01*
X96015771Y-100738094D02*
X96015771Y-100595237D01*
X96015771Y-100595237D02*
X96063390Y-100499999D01*
X96063390Y-100499999D02*
X96111009Y-100452380D01*
X96111009Y-100452380D02*
X96206247Y-100404761D01*
X96206247Y-100404761D02*
X96444342Y-100404761D01*
X96444342Y-100404761D02*
X96539580Y-100452380D01*
X96539580Y-100452380D02*
X96587200Y-100499999D01*
X96587200Y-100499999D02*
X96634819Y-100595237D01*
X96634819Y-100595237D02*
X96634819Y-100880951D01*
X96634819Y-100880951D02*
X96587200Y-100976189D01*
X96587200Y-100976189D02*
X96539580Y-101023808D01*
X95730057Y-100023808D02*
X95682438Y-99976189D01*
X95682438Y-99976189D02*
X95634819Y-99880951D01*
X95634819Y-99880951D02*
X95634819Y-99642856D01*
X95634819Y-99642856D02*
X95682438Y-99547618D01*
X95682438Y-99547618D02*
X95730057Y-99499999D01*
X95730057Y-99499999D02*
X95825295Y-99452380D01*
X95825295Y-99452380D02*
X95920533Y-99452380D01*
X95920533Y-99452380D02*
X96063390Y-99499999D01*
X96063390Y-99499999D02*
X96634819Y-100071427D01*
X96634819Y-100071427D02*
X96634819Y-99452380D01*
X50166666Y-112204819D02*
X49833333Y-111728628D01*
X49595238Y-112204819D02*
X49595238Y-111204819D01*
X49595238Y-111204819D02*
X49976190Y-111204819D01*
X49976190Y-111204819D02*
X50071428Y-111252438D01*
X50071428Y-111252438D02*
X50119047Y-111300057D01*
X50119047Y-111300057D02*
X50166666Y-111395295D01*
X50166666Y-111395295D02*
X50166666Y-111538152D01*
X50166666Y-111538152D02*
X50119047Y-111633390D01*
X50119047Y-111633390D02*
X50071428Y-111681009D01*
X50071428Y-111681009D02*
X49976190Y-111728628D01*
X49976190Y-111728628D02*
X49595238Y-111728628D01*
X50595238Y-111681009D02*
X50928571Y-111681009D01*
X51071428Y-112204819D02*
X50595238Y-112204819D01*
X50595238Y-112204819D02*
X50595238Y-111204819D01*
X50595238Y-111204819D02*
X51071428Y-111204819D01*
X51833333Y-111681009D02*
X51500000Y-111681009D01*
X51500000Y-112204819D02*
X51500000Y-111204819D01*
X51500000Y-111204819D02*
X51976190Y-111204819D01*
X52500000Y-111204819D02*
X52500000Y-111442914D01*
X52261905Y-111347676D02*
X52500000Y-111442914D01*
X52500000Y-111442914D02*
X52738095Y-111347676D01*
X52357143Y-111633390D02*
X52500000Y-111442914D01*
X52500000Y-111442914D02*
X52642857Y-111633390D01*
X53261905Y-111204819D02*
X53261905Y-111442914D01*
X53023810Y-111347676D02*
X53261905Y-111442914D01*
X53261905Y-111442914D02*
X53500000Y-111347676D01*
X53119048Y-111633390D02*
X53261905Y-111442914D01*
X53261905Y-111442914D02*
X53404762Y-111633390D01*
X53994819Y-121666666D02*
X53518628Y-121999999D01*
X53994819Y-122238094D02*
X52994819Y-122238094D01*
X52994819Y-122238094D02*
X52994819Y-121857142D01*
X52994819Y-121857142D02*
X53042438Y-121761904D01*
X53042438Y-121761904D02*
X53090057Y-121714285D01*
X53090057Y-121714285D02*
X53185295Y-121666666D01*
X53185295Y-121666666D02*
X53328152Y-121666666D01*
X53328152Y-121666666D02*
X53423390Y-121714285D01*
X53423390Y-121714285D02*
X53471009Y-121761904D01*
X53471009Y-121761904D02*
X53518628Y-121857142D01*
X53518628Y-121857142D02*
X53518628Y-122238094D01*
X53328152Y-120809523D02*
X53994819Y-120809523D01*
X52947200Y-121047618D02*
X53661485Y-121285713D01*
X53661485Y-121285713D02*
X53661485Y-120666666D01*
D11*
X67488095Y-93207419D02*
X67488095Y-94016942D01*
X67488095Y-94016942D02*
X67535714Y-94112180D01*
X67535714Y-94112180D02*
X67583333Y-94159800D01*
X67583333Y-94159800D02*
X67678571Y-94207419D01*
X67678571Y-94207419D02*
X67869047Y-94207419D01*
X67869047Y-94207419D02*
X67964285Y-94159800D01*
X67964285Y-94159800D02*
X68011904Y-94112180D01*
X68011904Y-94112180D02*
X68059523Y-94016942D01*
X68059523Y-94016942D02*
X68059523Y-93207419D01*
X69059523Y-94207419D02*
X68488095Y-94207419D01*
X68773809Y-94207419D02*
X68773809Y-93207419D01*
X68773809Y-93207419D02*
X68678571Y-93350276D01*
X68678571Y-93350276D02*
X68583333Y-93445514D01*
X68583333Y-93445514D02*
X68488095Y-93493133D01*
D10*
X64940476Y-95704819D02*
X64464286Y-95704819D01*
X64464286Y-95704819D02*
X64464286Y-94704819D01*
X65273810Y-95704819D02*
X65273810Y-94704819D01*
X65273810Y-94704819D02*
X65607143Y-95419104D01*
X65607143Y-95419104D02*
X65940476Y-94704819D01*
X65940476Y-94704819D02*
X65940476Y-95704819D01*
X66321429Y-94704819D02*
X66940476Y-94704819D01*
X66940476Y-94704819D02*
X66607143Y-95085771D01*
X66607143Y-95085771D02*
X66750000Y-95085771D01*
X66750000Y-95085771D02*
X66845238Y-95133390D01*
X66845238Y-95133390D02*
X66892857Y-95181009D01*
X66892857Y-95181009D02*
X66940476Y-95276247D01*
X66940476Y-95276247D02*
X66940476Y-95514342D01*
X66940476Y-95514342D02*
X66892857Y-95609580D01*
X66892857Y-95609580D02*
X66845238Y-95657200D01*
X66845238Y-95657200D02*
X66750000Y-95704819D01*
X66750000Y-95704819D02*
X66464286Y-95704819D01*
X66464286Y-95704819D02*
X66369048Y-95657200D01*
X66369048Y-95657200D02*
X66321429Y-95609580D01*
X67416667Y-95704819D02*
X67607143Y-95704819D01*
X67607143Y-95704819D02*
X67702381Y-95657200D01*
X67702381Y-95657200D02*
X67750000Y-95609580D01*
X67750000Y-95609580D02*
X67845238Y-95466723D01*
X67845238Y-95466723D02*
X67892857Y-95276247D01*
X67892857Y-95276247D02*
X67892857Y-94895295D01*
X67892857Y-94895295D02*
X67845238Y-94800057D01*
X67845238Y-94800057D02*
X67797619Y-94752438D01*
X67797619Y-94752438D02*
X67702381Y-94704819D01*
X67702381Y-94704819D02*
X67511905Y-94704819D01*
X67511905Y-94704819D02*
X67416667Y-94752438D01*
X67416667Y-94752438D02*
X67369048Y-94800057D01*
X67369048Y-94800057D02*
X67321429Y-94895295D01*
X67321429Y-94895295D02*
X67321429Y-95133390D01*
X67321429Y-95133390D02*
X67369048Y-95228628D01*
X67369048Y-95228628D02*
X67416667Y-95276247D01*
X67416667Y-95276247D02*
X67511905Y-95323866D01*
X67511905Y-95323866D02*
X67702381Y-95323866D01*
X67702381Y-95323866D02*
X67797619Y-95276247D01*
X67797619Y-95276247D02*
X67845238Y-95228628D01*
X67845238Y-95228628D02*
X67892857Y-95133390D01*
X68226191Y-94704819D02*
X68845238Y-94704819D01*
X68845238Y-94704819D02*
X68511905Y-95085771D01*
X68511905Y-95085771D02*
X68654762Y-95085771D01*
X68654762Y-95085771D02*
X68750000Y-95133390D01*
X68750000Y-95133390D02*
X68797619Y-95181009D01*
X68797619Y-95181009D02*
X68845238Y-95276247D01*
X68845238Y-95276247D02*
X68845238Y-95514342D01*
X68845238Y-95514342D02*
X68797619Y-95609580D01*
X68797619Y-95609580D02*
X68750000Y-95657200D01*
X68750000Y-95657200D02*
X68654762Y-95704819D01*
X68654762Y-95704819D02*
X68369048Y-95704819D01*
X68369048Y-95704819D02*
X68273810Y-95657200D01*
X68273810Y-95657200D02*
X68226191Y-95609580D01*
X69035715Y-95800057D02*
X69797619Y-95800057D01*
X70035715Y-95704819D02*
X70035715Y-94704819D01*
X70035715Y-94704819D02*
X70273810Y-94704819D01*
X70273810Y-94704819D02*
X70416667Y-94752438D01*
X70416667Y-94752438D02*
X70511905Y-94847676D01*
X70511905Y-94847676D02*
X70559524Y-94942914D01*
X70559524Y-94942914D02*
X70607143Y-95133390D01*
X70607143Y-95133390D02*
X70607143Y-95276247D01*
X70607143Y-95276247D02*
X70559524Y-95466723D01*
X70559524Y-95466723D02*
X70511905Y-95561961D01*
X70511905Y-95561961D02*
X70416667Y-95657200D01*
X70416667Y-95657200D02*
X70273810Y-95704819D01*
X70273810Y-95704819D02*
X70035715Y-95704819D01*
X71035715Y-95704819D02*
X71035715Y-94704819D01*
X71511905Y-95704819D02*
X71511905Y-94704819D01*
X71511905Y-94704819D02*
X71892857Y-94704819D01*
X71892857Y-94704819D02*
X71988095Y-94752438D01*
X71988095Y-94752438D02*
X72035714Y-94800057D01*
X72035714Y-94800057D02*
X72083333Y-94895295D01*
X72083333Y-94895295D02*
X72083333Y-95038152D01*
X72083333Y-95038152D02*
X72035714Y-95133390D01*
X72035714Y-95133390D02*
X71988095Y-95181009D01*
X71988095Y-95181009D02*
X71892857Y-95228628D01*
X71892857Y-95228628D02*
X71511905Y-95228628D01*
X52034405Y-94437319D02*
X52034405Y-95246842D01*
X52034405Y-95246842D02*
X52082024Y-95342080D01*
X52082024Y-95342080D02*
X52129643Y-95389700D01*
X52129643Y-95389700D02*
X52224881Y-95437319D01*
X52224881Y-95437319D02*
X52415357Y-95437319D01*
X52415357Y-95437319D02*
X52510595Y-95389700D01*
X52510595Y-95389700D02*
X52558214Y-95342080D01*
X52558214Y-95342080D02*
X52605833Y-95246842D01*
X52605833Y-95246842D02*
X52605833Y-94437319D01*
X53034405Y-95389700D02*
X53177262Y-95437319D01*
X53177262Y-95437319D02*
X53415357Y-95437319D01*
X53415357Y-95437319D02*
X53510595Y-95389700D01*
X53510595Y-95389700D02*
X53558214Y-95342080D01*
X53558214Y-95342080D02*
X53605833Y-95246842D01*
X53605833Y-95246842D02*
X53605833Y-95151604D01*
X53605833Y-95151604D02*
X53558214Y-95056366D01*
X53558214Y-95056366D02*
X53510595Y-95008747D01*
X53510595Y-95008747D02*
X53415357Y-94961128D01*
X53415357Y-94961128D02*
X53224881Y-94913509D01*
X53224881Y-94913509D02*
X53129643Y-94865890D01*
X53129643Y-94865890D02*
X53082024Y-94818271D01*
X53082024Y-94818271D02*
X53034405Y-94723033D01*
X53034405Y-94723033D02*
X53034405Y-94627795D01*
X53034405Y-94627795D02*
X53082024Y-94532557D01*
X53082024Y-94532557D02*
X53129643Y-94484938D01*
X53129643Y-94484938D02*
X53224881Y-94437319D01*
X53224881Y-94437319D02*
X53462976Y-94437319D01*
X53462976Y-94437319D02*
X53605833Y-94484938D01*
X53320119Y-94294461D02*
X53320119Y-95580176D01*
X54462976Y-94437319D02*
X54272500Y-94437319D01*
X54272500Y-94437319D02*
X54177262Y-94484938D01*
X54177262Y-94484938D02*
X54129643Y-94532557D01*
X54129643Y-94532557D02*
X54034405Y-94675414D01*
X54034405Y-94675414D02*
X53986786Y-94865890D01*
X53986786Y-94865890D02*
X53986786Y-95246842D01*
X53986786Y-95246842D02*
X54034405Y-95342080D01*
X54034405Y-95342080D02*
X54082024Y-95389700D01*
X54082024Y-95389700D02*
X54177262Y-95437319D01*
X54177262Y-95437319D02*
X54367738Y-95437319D01*
X54367738Y-95437319D02*
X54462976Y-95389700D01*
X54462976Y-95389700D02*
X54510595Y-95342080D01*
X54510595Y-95342080D02*
X54558214Y-95246842D01*
X54558214Y-95246842D02*
X54558214Y-95008747D01*
X54558214Y-95008747D02*
X54510595Y-94913509D01*
X54510595Y-94913509D02*
X54462976Y-94865890D01*
X54462976Y-94865890D02*
X54367738Y-94818271D01*
X54367738Y-94818271D02*
X54177262Y-94818271D01*
X54177262Y-94818271D02*
X54082024Y-94865890D01*
X54082024Y-94865890D02*
X54034405Y-94913509D01*
X54034405Y-94913509D02*
X53986786Y-95008747D01*
X40227200Y-119706666D02*
X40274819Y-119611428D01*
X40274819Y-119611428D02*
X40274819Y-119420952D01*
X40274819Y-119420952D02*
X40227200Y-119325714D01*
X40227200Y-119325714D02*
X40131961Y-119278095D01*
X40131961Y-119278095D02*
X40084342Y-119278095D01*
X40084342Y-119278095D02*
X39989104Y-119325714D01*
X39989104Y-119325714D02*
X39941485Y-119420952D01*
X39941485Y-119420952D02*
X39941485Y-119563809D01*
X39941485Y-119563809D02*
X39893866Y-119659047D01*
X39893866Y-119659047D02*
X39798628Y-119706666D01*
X39798628Y-119706666D02*
X39751009Y-119706666D01*
X39751009Y-119706666D02*
X39655771Y-119659047D01*
X39655771Y-119659047D02*
X39608152Y-119563809D01*
X39608152Y-119563809D02*
X39608152Y-119420952D01*
X39608152Y-119420952D02*
X39655771Y-119325714D01*
X40274819Y-118706666D02*
X40227200Y-118801904D01*
X40227200Y-118801904D02*
X40179580Y-118849523D01*
X40179580Y-118849523D02*
X40084342Y-118897142D01*
X40084342Y-118897142D02*
X39798628Y-118897142D01*
X39798628Y-118897142D02*
X39703390Y-118849523D01*
X39703390Y-118849523D02*
X39655771Y-118801904D01*
X39655771Y-118801904D02*
X39608152Y-118706666D01*
X39608152Y-118706666D02*
X39608152Y-118563809D01*
X39608152Y-118563809D02*
X39655771Y-118468571D01*
X39655771Y-118468571D02*
X39703390Y-118420952D01*
X39703390Y-118420952D02*
X39798628Y-118373333D01*
X39798628Y-118373333D02*
X40084342Y-118373333D01*
X40084342Y-118373333D02*
X40179580Y-118420952D01*
X40179580Y-118420952D02*
X40227200Y-118468571D01*
X40227200Y-118468571D02*
X40274819Y-118563809D01*
X40274819Y-118563809D02*
X40274819Y-118706666D01*
X40274819Y-117801904D02*
X40227200Y-117897142D01*
X40227200Y-117897142D02*
X40131961Y-117944761D01*
X40131961Y-117944761D02*
X39274819Y-117944761D01*
X40274819Y-116992380D02*
X39751009Y-116992380D01*
X39751009Y-116992380D02*
X39655771Y-117039999D01*
X39655771Y-117039999D02*
X39608152Y-117135237D01*
X39608152Y-117135237D02*
X39608152Y-117325713D01*
X39608152Y-117325713D02*
X39655771Y-117420951D01*
X40227200Y-116992380D02*
X40274819Y-117087618D01*
X40274819Y-117087618D02*
X40274819Y-117325713D01*
X40274819Y-117325713D02*
X40227200Y-117420951D01*
X40227200Y-117420951D02*
X40131961Y-117468570D01*
X40131961Y-117468570D02*
X40036723Y-117468570D01*
X40036723Y-117468570D02*
X39941485Y-117420951D01*
X39941485Y-117420951D02*
X39893866Y-117325713D01*
X39893866Y-117325713D02*
X39893866Y-117087618D01*
X39893866Y-117087618D02*
X39846247Y-116992380D01*
X40274819Y-116516189D02*
X39608152Y-116516189D01*
X39798628Y-116516189D02*
X39703390Y-116468570D01*
X39703390Y-116468570D02*
X39655771Y-116420951D01*
X39655771Y-116420951D02*
X39608152Y-116325713D01*
X39608152Y-116325713D02*
X39608152Y-116230475D01*
X40274819Y-115373332D02*
X40274819Y-115944760D01*
X40274819Y-115659046D02*
X39274819Y-115659046D01*
X39274819Y-115659046D02*
X39417676Y-115754284D01*
X39417676Y-115754284D02*
X39512914Y-115849522D01*
X39512914Y-115849522D02*
X39560533Y-115944760D01*
X87990057Y-101365238D02*
X87942438Y-101460476D01*
X87942438Y-101460476D02*
X87847200Y-101555714D01*
X87847200Y-101555714D02*
X87704342Y-101698571D01*
X87704342Y-101698571D02*
X87656723Y-101793809D01*
X87656723Y-101793809D02*
X87656723Y-101889047D01*
X87894819Y-101841428D02*
X87847200Y-101936666D01*
X87847200Y-101936666D02*
X87751961Y-102031904D01*
X87751961Y-102031904D02*
X87561485Y-102079523D01*
X87561485Y-102079523D02*
X87228152Y-102079523D01*
X87228152Y-102079523D02*
X87037676Y-102031904D01*
X87037676Y-102031904D02*
X86942438Y-101936666D01*
X86942438Y-101936666D02*
X86894819Y-101841428D01*
X86894819Y-101841428D02*
X86894819Y-101650952D01*
X86894819Y-101650952D02*
X86942438Y-101555714D01*
X86942438Y-101555714D02*
X87037676Y-101460476D01*
X87037676Y-101460476D02*
X87228152Y-101412857D01*
X87228152Y-101412857D02*
X87561485Y-101412857D01*
X87561485Y-101412857D02*
X87751961Y-101460476D01*
X87751961Y-101460476D02*
X87847200Y-101555714D01*
X87847200Y-101555714D02*
X87894819Y-101650952D01*
X87894819Y-101650952D02*
X87894819Y-101841428D01*
X86990057Y-101031904D02*
X86942438Y-100984285D01*
X86942438Y-100984285D02*
X86894819Y-100889047D01*
X86894819Y-100889047D02*
X86894819Y-100650952D01*
X86894819Y-100650952D02*
X86942438Y-100555714D01*
X86942438Y-100555714D02*
X86990057Y-100508095D01*
X86990057Y-100508095D02*
X87085295Y-100460476D01*
X87085295Y-100460476D02*
X87180533Y-100460476D01*
X87180533Y-100460476D02*
X87323390Y-100508095D01*
X87323390Y-100508095D02*
X87894819Y-101079523D01*
X87894819Y-101079523D02*
X87894819Y-100460476D01*
X78350057Y-101595238D02*
X78302438Y-101690476D01*
X78302438Y-101690476D02*
X78207200Y-101785714D01*
X78207200Y-101785714D02*
X78064342Y-101928571D01*
X78064342Y-101928571D02*
X78016723Y-102023809D01*
X78016723Y-102023809D02*
X78016723Y-102119047D01*
X78254819Y-102071428D02*
X78207200Y-102166666D01*
X78207200Y-102166666D02*
X78111961Y-102261904D01*
X78111961Y-102261904D02*
X77921485Y-102309523D01*
X77921485Y-102309523D02*
X77588152Y-102309523D01*
X77588152Y-102309523D02*
X77397676Y-102261904D01*
X77397676Y-102261904D02*
X77302438Y-102166666D01*
X77302438Y-102166666D02*
X77254819Y-102071428D01*
X77254819Y-102071428D02*
X77254819Y-101880952D01*
X77254819Y-101880952D02*
X77302438Y-101785714D01*
X77302438Y-101785714D02*
X77397676Y-101690476D01*
X77397676Y-101690476D02*
X77588152Y-101642857D01*
X77588152Y-101642857D02*
X77921485Y-101642857D01*
X77921485Y-101642857D02*
X78111961Y-101690476D01*
X78111961Y-101690476D02*
X78207200Y-101785714D01*
X78207200Y-101785714D02*
X78254819Y-101880952D01*
X78254819Y-101880952D02*
X78254819Y-102071428D01*
X78254819Y-100690476D02*
X78254819Y-101261904D01*
X78254819Y-100976190D02*
X77254819Y-100976190D01*
X77254819Y-100976190D02*
X77397676Y-101071428D01*
X77397676Y-101071428D02*
X77492914Y-101166666D01*
X77492914Y-101166666D02*
X77540533Y-101261904D01*
X36424819Y-102238094D02*
X35424819Y-102238094D01*
X35424819Y-102238094D02*
X35424819Y-101999999D01*
X35424819Y-101999999D02*
X35472438Y-101857142D01*
X35472438Y-101857142D02*
X35567676Y-101761904D01*
X35567676Y-101761904D02*
X35662914Y-101714285D01*
X35662914Y-101714285D02*
X35853390Y-101666666D01*
X35853390Y-101666666D02*
X35996247Y-101666666D01*
X35996247Y-101666666D02*
X36186723Y-101714285D01*
X36186723Y-101714285D02*
X36281961Y-101761904D01*
X36281961Y-101761904D02*
X36377200Y-101857142D01*
X36377200Y-101857142D02*
X36424819Y-101999999D01*
X36424819Y-101999999D02*
X36424819Y-102238094D01*
X36424819Y-100714285D02*
X36424819Y-101285713D01*
X36424819Y-100999999D02*
X35424819Y-100999999D01*
X35424819Y-100999999D02*
X35567676Y-101095237D01*
X35567676Y-101095237D02*
X35662914Y-101190475D01*
X35662914Y-101190475D02*
X35710533Y-101285713D01*
X36054819Y-96681904D02*
X35054819Y-96681904D01*
X36054819Y-96110476D02*
X35483390Y-96539047D01*
X35054819Y-96110476D02*
X35626247Y-96681904D01*
X72954819Y-87738094D02*
X73764342Y-87738094D01*
X73764342Y-87738094D02*
X73859580Y-87690475D01*
X73859580Y-87690475D02*
X73907200Y-87642856D01*
X73907200Y-87642856D02*
X73954819Y-87547618D01*
X73954819Y-87547618D02*
X73954819Y-87357142D01*
X73954819Y-87357142D02*
X73907200Y-87261904D01*
X73907200Y-87261904D02*
X73859580Y-87214285D01*
X73859580Y-87214285D02*
X73764342Y-87166666D01*
X73764342Y-87166666D02*
X72954819Y-87166666D01*
X73907200Y-86738094D02*
X73954819Y-86595237D01*
X73954819Y-86595237D02*
X73954819Y-86357142D01*
X73954819Y-86357142D02*
X73907200Y-86261904D01*
X73907200Y-86261904D02*
X73859580Y-86214285D01*
X73859580Y-86214285D02*
X73764342Y-86166666D01*
X73764342Y-86166666D02*
X73669104Y-86166666D01*
X73669104Y-86166666D02*
X73573866Y-86214285D01*
X73573866Y-86214285D02*
X73526247Y-86261904D01*
X73526247Y-86261904D02*
X73478628Y-86357142D01*
X73478628Y-86357142D02*
X73431009Y-86547618D01*
X73431009Y-86547618D02*
X73383390Y-86642856D01*
X73383390Y-86642856D02*
X73335771Y-86690475D01*
X73335771Y-86690475D02*
X73240533Y-86738094D01*
X73240533Y-86738094D02*
X73145295Y-86738094D01*
X73145295Y-86738094D02*
X73050057Y-86690475D01*
X73050057Y-86690475D02*
X73002438Y-86642856D01*
X73002438Y-86642856D02*
X72954819Y-86547618D01*
X72954819Y-86547618D02*
X72954819Y-86309523D01*
X72954819Y-86309523D02*
X73002438Y-86166666D01*
X72811961Y-86452380D02*
X74097676Y-86452380D01*
X72954819Y-85261904D02*
X72954819Y-85738094D01*
X72954819Y-85738094D02*
X73431009Y-85785713D01*
X73431009Y-85785713D02*
X73383390Y-85738094D01*
X73383390Y-85738094D02*
X73335771Y-85642856D01*
X73335771Y-85642856D02*
X73335771Y-85404761D01*
X73335771Y-85404761D02*
X73383390Y-85309523D01*
X73383390Y-85309523D02*
X73431009Y-85261904D01*
X73431009Y-85261904D02*
X73526247Y-85214285D01*
X73526247Y-85214285D02*
X73764342Y-85214285D01*
X73764342Y-85214285D02*
X73859580Y-85261904D01*
X73859580Y-85261904D02*
X73907200Y-85309523D01*
X73907200Y-85309523D02*
X73954819Y-85404761D01*
X73954819Y-85404761D02*
X73954819Y-85642856D01*
X73954819Y-85642856D02*
X73907200Y-85738094D01*
X73907200Y-85738094D02*
X73859580Y-85785713D01*
X57333333Y-96084819D02*
X57000000Y-95608628D01*
X56761905Y-96084819D02*
X56761905Y-95084819D01*
X56761905Y-95084819D02*
X57142857Y-95084819D01*
X57142857Y-95084819D02*
X57238095Y-95132438D01*
X57238095Y-95132438D02*
X57285714Y-95180057D01*
X57285714Y-95180057D02*
X57333333Y-95275295D01*
X57333333Y-95275295D02*
X57333333Y-95418152D01*
X57333333Y-95418152D02*
X57285714Y-95513390D01*
X57285714Y-95513390D02*
X57238095Y-95561009D01*
X57238095Y-95561009D02*
X57142857Y-95608628D01*
X57142857Y-95608628D02*
X56761905Y-95608628D01*
X58190476Y-95084819D02*
X58000000Y-95084819D01*
X58000000Y-95084819D02*
X57904762Y-95132438D01*
X57904762Y-95132438D02*
X57857143Y-95180057D01*
X57857143Y-95180057D02*
X57761905Y-95322914D01*
X57761905Y-95322914D02*
X57714286Y-95513390D01*
X57714286Y-95513390D02*
X57714286Y-95894342D01*
X57714286Y-95894342D02*
X57761905Y-95989580D01*
X57761905Y-95989580D02*
X57809524Y-96037200D01*
X57809524Y-96037200D02*
X57904762Y-96084819D01*
X57904762Y-96084819D02*
X58095238Y-96084819D01*
X58095238Y-96084819D02*
X58190476Y-96037200D01*
X58190476Y-96037200D02*
X58238095Y-95989580D01*
X58238095Y-95989580D02*
X58285714Y-95894342D01*
X58285714Y-95894342D02*
X58285714Y-95656247D01*
X58285714Y-95656247D02*
X58238095Y-95561009D01*
X58238095Y-95561009D02*
X58190476Y-95513390D01*
X58190476Y-95513390D02*
X58095238Y-95465771D01*
X58095238Y-95465771D02*
X57904762Y-95465771D01*
X57904762Y-95465771D02*
X57809524Y-95513390D01*
X57809524Y-95513390D02*
X57761905Y-95561009D01*
X57761905Y-95561009D02*
X57714286Y-95656247D01*
X66084819Y-86166666D02*
X65608628Y-86499999D01*
X66084819Y-86738094D02*
X65084819Y-86738094D01*
X65084819Y-86738094D02*
X65084819Y-86357142D01*
X65084819Y-86357142D02*
X65132438Y-86261904D01*
X65132438Y-86261904D02*
X65180057Y-86214285D01*
X65180057Y-86214285D02*
X65275295Y-86166666D01*
X65275295Y-86166666D02*
X65418152Y-86166666D01*
X65418152Y-86166666D02*
X65513390Y-86214285D01*
X65513390Y-86214285D02*
X65561009Y-86261904D01*
X65561009Y-86261904D02*
X65608628Y-86357142D01*
X65608628Y-86357142D02*
X65608628Y-86738094D01*
X65084819Y-85261904D02*
X65084819Y-85738094D01*
X65084819Y-85738094D02*
X65561009Y-85785713D01*
X65561009Y-85785713D02*
X65513390Y-85738094D01*
X65513390Y-85738094D02*
X65465771Y-85642856D01*
X65465771Y-85642856D02*
X65465771Y-85404761D01*
X65465771Y-85404761D02*
X65513390Y-85309523D01*
X65513390Y-85309523D02*
X65561009Y-85261904D01*
X65561009Y-85261904D02*
X65656247Y-85214285D01*
X65656247Y-85214285D02*
X65894342Y-85214285D01*
X65894342Y-85214285D02*
X65989580Y-85261904D01*
X65989580Y-85261904D02*
X66037200Y-85309523D01*
X66037200Y-85309523D02*
X66084819Y-85404761D01*
X66084819Y-85404761D02*
X66084819Y-85642856D01*
X66084819Y-85642856D02*
X66037200Y-85738094D01*
X66037200Y-85738094D02*
X65989580Y-85785713D01*
X42534819Y-122166666D02*
X42058628Y-122499999D01*
X42534819Y-122738094D02*
X41534819Y-122738094D01*
X41534819Y-122738094D02*
X41534819Y-122357142D01*
X41534819Y-122357142D02*
X41582438Y-122261904D01*
X41582438Y-122261904D02*
X41630057Y-122214285D01*
X41630057Y-122214285D02*
X41725295Y-122166666D01*
X41725295Y-122166666D02*
X41868152Y-122166666D01*
X41868152Y-122166666D02*
X41963390Y-122214285D01*
X41963390Y-122214285D02*
X42011009Y-122261904D01*
X42011009Y-122261904D02*
X42058628Y-122357142D01*
X42058628Y-122357142D02*
X42058628Y-122738094D01*
X42534819Y-121214285D02*
X42534819Y-121785713D01*
X42534819Y-121499999D02*
X41534819Y-121499999D01*
X41534819Y-121499999D02*
X41677676Y-121595237D01*
X41677676Y-121595237D02*
X41772914Y-121690475D01*
X41772914Y-121690475D02*
X41820533Y-121785713D01*
X96307319Y-122338333D02*
X95640652Y-122338333D01*
X95735890Y-122338333D02*
X95688271Y-122290714D01*
X95688271Y-122290714D02*
X95640652Y-122195476D01*
X95640652Y-122195476D02*
X95640652Y-122052619D01*
X95640652Y-122052619D02*
X95688271Y-121957381D01*
X95688271Y-121957381D02*
X95783509Y-121909762D01*
X95783509Y-121909762D02*
X96307319Y-121909762D01*
X95783509Y-121909762D02*
X95688271Y-121862143D01*
X95688271Y-121862143D02*
X95640652Y-121766905D01*
X95640652Y-121766905D02*
X95640652Y-121624048D01*
X95640652Y-121624048D02*
X95688271Y-121528809D01*
X95688271Y-121528809D02*
X95783509Y-121481190D01*
X95783509Y-121481190D02*
X96307319Y-121481190D01*
X96307319Y-120576429D02*
X95783509Y-120576429D01*
X95783509Y-120576429D02*
X95688271Y-120624048D01*
X95688271Y-120624048D02*
X95640652Y-120719286D01*
X95640652Y-120719286D02*
X95640652Y-120909762D01*
X95640652Y-120909762D02*
X95688271Y-121005000D01*
X96259700Y-120576429D02*
X96307319Y-120671667D01*
X96307319Y-120671667D02*
X96307319Y-120909762D01*
X96307319Y-120909762D02*
X96259700Y-121005000D01*
X96259700Y-121005000D02*
X96164461Y-121052619D01*
X96164461Y-121052619D02*
X96069223Y-121052619D01*
X96069223Y-121052619D02*
X95973985Y-121005000D01*
X95973985Y-121005000D02*
X95926366Y-120909762D01*
X95926366Y-120909762D02*
X95926366Y-120671667D01*
X95926366Y-120671667D02*
X95878747Y-120576429D01*
X96307319Y-120100238D02*
X95640652Y-120100238D01*
X95307319Y-120100238D02*
X95354938Y-120147857D01*
X95354938Y-120147857D02*
X95402557Y-120100238D01*
X95402557Y-120100238D02*
X95354938Y-120052619D01*
X95354938Y-120052619D02*
X95307319Y-120100238D01*
X95307319Y-120100238D02*
X95402557Y-120100238D01*
X95640652Y-119624048D02*
X96307319Y-119624048D01*
X95735890Y-119624048D02*
X95688271Y-119576429D01*
X95688271Y-119576429D02*
X95640652Y-119481191D01*
X95640652Y-119481191D02*
X95640652Y-119338334D01*
X95640652Y-119338334D02*
X95688271Y-119243096D01*
X95688271Y-119243096D02*
X95783509Y-119195477D01*
X95783509Y-119195477D02*
X96307319Y-119195477D01*
X96402557Y-118957382D02*
X96402557Y-118195477D01*
X96259700Y-118005000D02*
X96307319Y-117909762D01*
X96307319Y-117909762D02*
X96307319Y-117719286D01*
X96307319Y-117719286D02*
X96259700Y-117624048D01*
X96259700Y-117624048D02*
X96164461Y-117576429D01*
X96164461Y-117576429D02*
X96116842Y-117576429D01*
X96116842Y-117576429D02*
X96021604Y-117624048D01*
X96021604Y-117624048D02*
X95973985Y-117719286D01*
X95973985Y-117719286D02*
X95973985Y-117862143D01*
X95973985Y-117862143D02*
X95926366Y-117957381D01*
X95926366Y-117957381D02*
X95831128Y-118005000D01*
X95831128Y-118005000D02*
X95783509Y-118005000D01*
X95783509Y-118005000D02*
X95688271Y-117957381D01*
X95688271Y-117957381D02*
X95640652Y-117862143D01*
X95640652Y-117862143D02*
X95640652Y-117719286D01*
X95640652Y-117719286D02*
X95688271Y-117624048D01*
X95640652Y-116719286D02*
X96307319Y-116719286D01*
X95640652Y-117147857D02*
X96164461Y-117147857D01*
X96164461Y-117147857D02*
X96259700Y-117100238D01*
X96259700Y-117100238D02*
X96307319Y-117005000D01*
X96307319Y-117005000D02*
X96307319Y-116862143D01*
X96307319Y-116862143D02*
X96259700Y-116766905D01*
X96259700Y-116766905D02*
X96212080Y-116719286D01*
X95640652Y-116243095D02*
X96640652Y-116243095D01*
X95688271Y-116243095D02*
X95640652Y-116147857D01*
X95640652Y-116147857D02*
X95640652Y-115957381D01*
X95640652Y-115957381D02*
X95688271Y-115862143D01*
X95688271Y-115862143D02*
X95735890Y-115814524D01*
X95735890Y-115814524D02*
X95831128Y-115766905D01*
X95831128Y-115766905D02*
X96116842Y-115766905D01*
X96116842Y-115766905D02*
X96212080Y-115814524D01*
X96212080Y-115814524D02*
X96259700Y-115862143D01*
X96259700Y-115862143D02*
X96307319Y-115957381D01*
X96307319Y-115957381D02*
X96307319Y-116147857D01*
X96307319Y-116147857D02*
X96259700Y-116243095D01*
X95640652Y-115338333D02*
X96640652Y-115338333D01*
X95688271Y-115338333D02*
X95640652Y-115243095D01*
X95640652Y-115243095D02*
X95640652Y-115052619D01*
X95640652Y-115052619D02*
X95688271Y-114957381D01*
X95688271Y-114957381D02*
X95735890Y-114909762D01*
X95735890Y-114909762D02*
X95831128Y-114862143D01*
X95831128Y-114862143D02*
X96116842Y-114862143D01*
X96116842Y-114862143D02*
X96212080Y-114909762D01*
X96212080Y-114909762D02*
X96259700Y-114957381D01*
X96259700Y-114957381D02*
X96307319Y-115052619D01*
X96307319Y-115052619D02*
X96307319Y-115243095D01*
X96307319Y-115243095D02*
X96259700Y-115338333D01*
X96307319Y-114290714D02*
X96259700Y-114385952D01*
X96259700Y-114385952D02*
X96164461Y-114433571D01*
X96164461Y-114433571D02*
X95307319Y-114433571D01*
X95640652Y-114004999D02*
X96307319Y-113766904D01*
X95640652Y-113528809D02*
X96307319Y-113766904D01*
X96307319Y-113766904D02*
X96545414Y-113862142D01*
X96545414Y-113862142D02*
X96593033Y-113909761D01*
X96593033Y-113909761D02*
X96640652Y-114004999D01*
X96307319Y-112624047D02*
X96307319Y-113195475D01*
X96307319Y-112909761D02*
X95307319Y-112909761D01*
X95307319Y-112909761D02*
X95450176Y-113004999D01*
X95450176Y-113004999D02*
X95545414Y-113100237D01*
X95545414Y-113100237D02*
X95593033Y-113195475D01*
X41824819Y-107166666D02*
X41348628Y-107499999D01*
X41824819Y-107738094D02*
X40824819Y-107738094D01*
X40824819Y-107738094D02*
X40824819Y-107357142D01*
X40824819Y-107357142D02*
X40872438Y-107261904D01*
X40872438Y-107261904D02*
X40920057Y-107214285D01*
X40920057Y-107214285D02*
X41015295Y-107166666D01*
X41015295Y-107166666D02*
X41158152Y-107166666D01*
X41158152Y-107166666D02*
X41253390Y-107214285D01*
X41253390Y-107214285D02*
X41301009Y-107261904D01*
X41301009Y-107261904D02*
X41348628Y-107357142D01*
X41348628Y-107357142D02*
X41348628Y-107738094D01*
X40824819Y-106833332D02*
X40824819Y-106214285D01*
X40824819Y-106214285D02*
X41205771Y-106547618D01*
X41205771Y-106547618D02*
X41205771Y-106404761D01*
X41205771Y-106404761D02*
X41253390Y-106309523D01*
X41253390Y-106309523D02*
X41301009Y-106261904D01*
X41301009Y-106261904D02*
X41396247Y-106214285D01*
X41396247Y-106214285D02*
X41634342Y-106214285D01*
X41634342Y-106214285D02*
X41729580Y-106261904D01*
X41729580Y-106261904D02*
X41777200Y-106309523D01*
X41777200Y-106309523D02*
X41824819Y-106404761D01*
X41824819Y-106404761D02*
X41824819Y-106690475D01*
X41824819Y-106690475D02*
X41777200Y-106785713D01*
X41777200Y-106785713D02*
X41729580Y-106833332D01*
X64527200Y-121761904D02*
X64574819Y-121619047D01*
X64574819Y-121619047D02*
X64574819Y-121380952D01*
X64574819Y-121380952D02*
X64527200Y-121285714D01*
X64527200Y-121285714D02*
X64479580Y-121238095D01*
X64479580Y-121238095D02*
X64384342Y-121190476D01*
X64384342Y-121190476D02*
X64289104Y-121190476D01*
X64289104Y-121190476D02*
X64193866Y-121238095D01*
X64193866Y-121238095D02*
X64146247Y-121285714D01*
X64146247Y-121285714D02*
X64098628Y-121380952D01*
X64098628Y-121380952D02*
X64051009Y-121571428D01*
X64051009Y-121571428D02*
X64003390Y-121666666D01*
X64003390Y-121666666D02*
X63955771Y-121714285D01*
X63955771Y-121714285D02*
X63860533Y-121761904D01*
X63860533Y-121761904D02*
X63765295Y-121761904D01*
X63765295Y-121761904D02*
X63670057Y-121714285D01*
X63670057Y-121714285D02*
X63622438Y-121666666D01*
X63622438Y-121666666D02*
X63574819Y-121571428D01*
X63574819Y-121571428D02*
X63574819Y-121333333D01*
X63574819Y-121333333D02*
X63622438Y-121190476D01*
X64574819Y-120238095D02*
X64574819Y-120809523D01*
X64574819Y-120523809D02*
X63574819Y-120523809D01*
X63574819Y-120523809D02*
X63717676Y-120619047D01*
X63717676Y-120619047D02*
X63812914Y-120714285D01*
X63812914Y-120714285D02*
X63860533Y-120809523D01*
X41824819Y-96976666D02*
X41348628Y-97309999D01*
X41824819Y-97548094D02*
X40824819Y-97548094D01*
X40824819Y-97548094D02*
X40824819Y-97167142D01*
X40824819Y-97167142D02*
X40872438Y-97071904D01*
X40872438Y-97071904D02*
X40920057Y-97024285D01*
X40920057Y-97024285D02*
X41015295Y-96976666D01*
X41015295Y-96976666D02*
X41158152Y-96976666D01*
X41158152Y-96976666D02*
X41253390Y-97024285D01*
X41253390Y-97024285D02*
X41301009Y-97071904D01*
X41301009Y-97071904D02*
X41348628Y-97167142D01*
X41348628Y-97167142D02*
X41348628Y-97548094D01*
X40920057Y-96595713D02*
X40872438Y-96548094D01*
X40872438Y-96548094D02*
X40824819Y-96452856D01*
X40824819Y-96452856D02*
X40824819Y-96214761D01*
X40824819Y-96214761D02*
X40872438Y-96119523D01*
X40872438Y-96119523D02*
X40920057Y-96071904D01*
X40920057Y-96071904D02*
X41015295Y-96024285D01*
X41015295Y-96024285D02*
X41110533Y-96024285D01*
X41110533Y-96024285D02*
X41253390Y-96071904D01*
X41253390Y-96071904D02*
X41824819Y-96643332D01*
X41824819Y-96643332D02*
X41824819Y-96024285D01*
D12*
%TO.C,U$1*%
X75100000Y-107200000D02*
X75100000Y-113800000D01*
X75100000Y-107200000D02*
X94900000Y-107200000D01*
X75100000Y-116200000D02*
X75100000Y-122800000D01*
X79150000Y-115050000D02*
X78350000Y-115050000D01*
X79150000Y-115050000D02*
X79150000Y-118650000D01*
X80050000Y-121050000D02*
X82550000Y-121050000D01*
X80550000Y-113250000D02*
X84550000Y-113250000D01*
X80550000Y-116850000D02*
X80550000Y-113250000D01*
X82550000Y-109050000D02*
X80050000Y-109050000D01*
X82550000Y-109050000D02*
X82550000Y-113250000D01*
X82550000Y-116850000D02*
X82550000Y-121050000D01*
X84550000Y-113250000D02*
X84550000Y-116850000D01*
X84550000Y-116850000D02*
X80550000Y-113250000D01*
X84550000Y-116850000D02*
X80550000Y-116850000D01*
X85950000Y-115050000D02*
X85950000Y-118650000D01*
X85950000Y-115050000D02*
X87450000Y-115050000D01*
X85950000Y-118650000D02*
X79150000Y-118650000D01*
X87450000Y-115050000D02*
X92050000Y-112550000D01*
X90650000Y-110800000D02*
X90650000Y-113300000D01*
X90650000Y-119200000D02*
X90650000Y-116750000D01*
X94900000Y-107200000D02*
X94900000Y-122800000D01*
X94900000Y-122800000D02*
X75100000Y-122800000D01*
%TO.C,lead_acid1*%
X28607500Y-79795000D02*
X38647500Y-79795000D01*
X28607500Y-82155000D02*
X28607500Y-79795000D01*
X28607500Y-90195000D02*
X28607500Y-82755000D01*
X29227500Y-79795000D02*
X29227500Y-90195000D01*
X30727500Y-79795000D02*
X30727500Y-90195000D01*
X35627500Y-79795000D02*
X35627500Y-90195000D01*
X38647500Y-79795000D02*
X38647500Y-90195000D01*
X38647500Y-90195000D02*
X28607500Y-90195000D01*
X28607500Y-82455000D02*
X27997500Y-82895000D01*
X27997500Y-82015000D01*
X28607500Y-82455000D01*
G36*
X28607500Y-82455000D02*
G01*
X27997500Y-82895000D01*
X27997500Y-82015000D01*
X28607500Y-82455000D01*
G37*
%TO.C,load1*%
X96852500Y-79805000D02*
X106892500Y-79805000D01*
X96852500Y-90205000D02*
X96852500Y-79805000D01*
X99872500Y-90205000D02*
X99872500Y-79805000D01*
X104772500Y-90205000D02*
X104772500Y-79805000D01*
X106272500Y-90205000D02*
X106272500Y-79805000D01*
X106892500Y-79805000D02*
X106892500Y-87245000D01*
X106892500Y-87845000D02*
X106892500Y-90205000D01*
X106892500Y-90205000D02*
X96852500Y-90205000D01*
X107502500Y-87985000D02*
X106892500Y-87545000D01*
X107502500Y-87105000D01*
X107502500Y-87985000D01*
G36*
X107502500Y-87985000D02*
G01*
X106892500Y-87545000D01*
X107502500Y-87105000D01*
X107502500Y-87985000D01*
G37*
%TO.C,esp32*%
X97180000Y-93760000D02*
X107220000Y-93760000D01*
X97180000Y-109240000D02*
X97180000Y-93760000D01*
X100200000Y-109240000D02*
X100200000Y-93760000D01*
X105100000Y-109240000D02*
X105100000Y-93760000D01*
X106600000Y-109240000D02*
X106600000Y-93760000D01*
X107220000Y-93760000D02*
X107220000Y-106280000D01*
X107220000Y-106880000D02*
X107220000Y-109240000D01*
X107220000Y-109240000D02*
X97180000Y-109240000D01*
X107830000Y-107020000D02*
X107220000Y-106580000D01*
X107830000Y-106140000D01*
X107830000Y-107020000D01*
G36*
X107830000Y-107020000D02*
G01*
X107220000Y-106580000D01*
X107830000Y-106140000D01*
X107830000Y-107020000D01*
G37*
%TO.C,R4*%
X54540000Y-122880000D02*
X54540000Y-121500000D01*
X55920000Y-122880000D02*
X54540000Y-122880000D01*
X57190000Y-120120000D02*
X62380000Y-120120000D01*
X57190000Y-122880000D02*
X57190000Y-120120000D01*
X57190000Y-122880000D02*
X62380000Y-122880000D01*
X62380000Y-122880000D02*
X62380000Y-120120000D01*
%TO.C,U1*%
D11*
X65250000Y-96250000D02*
X71250000Y-96250000D01*
X71250000Y-106750000D01*
X65250000Y-106750000D01*
X65250000Y-96250000D01*
X69250000Y-96250000D02*
G75*
G02*
X67250000Y-96250000I-1000000J0D01*
G01*
D12*
%TO.C,U$6*%
X43400000Y-80200000D02*
X43400000Y-86800000D01*
X43400000Y-80200000D02*
X63200000Y-80200000D01*
X43400000Y-89200000D02*
X43400000Y-95800000D01*
X47450000Y-88050000D02*
X46650000Y-88050000D01*
X47450000Y-88050000D02*
X47450000Y-91650000D01*
X48350000Y-94050000D02*
X50850000Y-94050000D01*
X48850000Y-86250000D02*
X52850000Y-86250000D01*
X48850000Y-89850000D02*
X48850000Y-86250000D01*
X50850000Y-82050000D02*
X48350000Y-82050000D01*
X50850000Y-82050000D02*
X50850000Y-86250000D01*
X50850000Y-89850000D02*
X50850000Y-94050000D01*
X52850000Y-86250000D02*
X52850000Y-89850000D01*
X52850000Y-89850000D02*
X48850000Y-86250000D01*
X52850000Y-89850000D02*
X48850000Y-89850000D01*
X54250000Y-88050000D02*
X54250000Y-91650000D01*
X54250000Y-88050000D02*
X55750000Y-88050000D01*
X54250000Y-91650000D02*
X47450000Y-91650000D01*
X55750000Y-88050000D02*
X60350000Y-85550000D01*
X58950000Y-83800000D02*
X58950000Y-86300000D01*
X58950000Y-92200000D02*
X58950000Y-89750000D01*
X63200000Y-80200000D02*
X63200000Y-95800000D01*
X63200000Y-95800000D02*
X43400000Y-95800000D01*
%TO.C,solar1*%
X28780000Y-112340000D02*
X38820000Y-112340000D01*
X28780000Y-114700000D02*
X28780000Y-112340000D01*
X28780000Y-122740000D02*
X28780000Y-115300000D01*
X29400000Y-112340000D02*
X29400000Y-122740000D01*
X30900000Y-112340000D02*
X30900000Y-122740000D01*
X35800000Y-112340000D02*
X35800000Y-122740000D01*
X38820000Y-112340000D02*
X38820000Y-122740000D01*
X38820000Y-122740000D02*
X28780000Y-122740000D01*
X28780000Y-115000000D02*
X28170000Y-115440000D01*
X28170000Y-114560000D01*
X28780000Y-115000000D01*
G36*
X28780000Y-115000000D02*
G01*
X28170000Y-115440000D01*
X28170000Y-114560000D01*
X28780000Y-115000000D01*
G37*
%TO.C,Q2*%
X92850000Y-103070000D02*
X92850000Y-99470000D01*
X88400000Y-101270000D02*
G75*
G02*
X92838478Y-99431522I2600000J0D01*
G01*
X92838478Y-103108478D02*
G75*
G02*
X88399999Y-101270000I-1838478J1838478D01*
G01*
%TO.C,Q1*%
X83210000Y-103300000D02*
X83210000Y-99700000D01*
X78760000Y-101500000D02*
G75*
G02*
X83198478Y-99661522I2600000J0D01*
G01*
X83198478Y-103338478D02*
G75*
G02*
X78759999Y-101500000I-1838478J1838478D01*
G01*
%TO.C,D1*%
X33500000Y-97760000D02*
X33500000Y-98780000D01*
X33500000Y-105240000D02*
X33500000Y-104220000D01*
X34970000Y-99560000D02*
X32030000Y-99560000D01*
X34970000Y-99680000D02*
X32030000Y-99680000D01*
X34970000Y-99800000D02*
X32030000Y-99800000D01*
X34970000Y-98780000D02*
X32030000Y-98780000D01*
X32030000Y-104220000D01*
X34970000Y-104220000D01*
X34970000Y-98780000D01*
%TO.C,U$5*%
X74900000Y-79700000D02*
X74900000Y-86300000D01*
X74900000Y-79700000D02*
X94700000Y-79700000D01*
X74900000Y-88700000D02*
X74900000Y-95300000D01*
X78950000Y-87550000D02*
X78150000Y-87550000D01*
X78950000Y-87550000D02*
X78950000Y-91150000D01*
X79850000Y-93550000D02*
X82350000Y-93550000D01*
X80350000Y-85750000D02*
X84350000Y-85750000D01*
X80350000Y-89350000D02*
X80350000Y-85750000D01*
X82350000Y-81550000D02*
X79850000Y-81550000D01*
X82350000Y-81550000D02*
X82350000Y-85750000D01*
X82350000Y-89350000D02*
X82350000Y-93550000D01*
X84350000Y-85750000D02*
X84350000Y-89350000D01*
X84350000Y-89350000D02*
X80350000Y-85750000D01*
X84350000Y-89350000D02*
X80350000Y-89350000D01*
X85750000Y-87550000D02*
X85750000Y-91150000D01*
X85750000Y-87550000D02*
X87250000Y-87550000D01*
X85750000Y-91150000D02*
X78950000Y-91150000D01*
X87250000Y-87550000D02*
X91850000Y-85050000D01*
X90450000Y-83300000D02*
X90450000Y-85800000D01*
X90450000Y-91700000D02*
X90450000Y-89250000D01*
X94700000Y-79700000D02*
X94700000Y-95300000D01*
X94700000Y-95300000D02*
X74900000Y-95300000D01*
%TO.C,R6*%
X54230000Y-96630000D02*
X60770000Y-96630000D01*
X54230000Y-96960000D02*
X54230000Y-96630000D01*
X54230000Y-99040000D02*
X54230000Y-99370000D01*
X54230000Y-99370000D02*
X60770000Y-99370000D01*
X60770000Y-96630000D02*
X60770000Y-96960000D01*
X60770000Y-99370000D02*
X60770000Y-99040000D01*
%TO.C,R5*%
X66630000Y-82730000D02*
X66960000Y-82730000D01*
X66630000Y-89270000D02*
X66630000Y-82730000D01*
X66960000Y-89270000D02*
X66630000Y-89270000D01*
X69040000Y-89270000D02*
X69370000Y-89270000D01*
X69370000Y-82730000D02*
X69040000Y-82730000D01*
X69370000Y-89270000D02*
X69370000Y-82730000D01*
%TO.C,R1*%
X43080000Y-123380000D02*
X43080000Y-122000000D01*
X44460000Y-123380000D02*
X43080000Y-123380000D01*
X45730000Y-120620000D02*
X50920000Y-120620000D01*
X45730000Y-123380000D02*
X45730000Y-120620000D01*
X45730000Y-123380000D02*
X50920000Y-123380000D01*
X50920000Y-123380000D02*
X50920000Y-120620000D01*
%TO.C,main_supply1*%
X96852500Y-112305000D02*
X106892500Y-112305000D01*
X96852500Y-122705000D02*
X96852500Y-112305000D01*
X99872500Y-122705000D02*
X99872500Y-112305000D01*
X104772500Y-122705000D02*
X104772500Y-112305000D01*
X106272500Y-122705000D02*
X106272500Y-112305000D01*
X106892500Y-112305000D02*
X106892500Y-119745000D01*
X106892500Y-120345000D02*
X106892500Y-122705000D01*
X106892500Y-122705000D02*
X96852500Y-122705000D01*
X107502500Y-120485000D02*
X106892500Y-120045000D01*
X107502500Y-119605000D01*
X107502500Y-120485000D01*
G36*
X107502500Y-120485000D02*
G01*
X106892500Y-120045000D01*
X107502500Y-119605000D01*
X107502500Y-120485000D01*
G37*
%TO.C,R3*%
X37630000Y-103730000D02*
X37630000Y-110270000D01*
X37630000Y-110270000D02*
X37960000Y-110270000D01*
X37960000Y-103730000D02*
X37630000Y-103730000D01*
X40040000Y-103730000D02*
X40370000Y-103730000D01*
X40370000Y-103730000D02*
X40370000Y-110270000D01*
X40370000Y-110270000D02*
X40040000Y-110270000D01*
%TO.C,S1*%
X65120000Y-122380000D02*
X65120000Y-121000000D01*
X66500000Y-122380000D02*
X65120000Y-122380000D01*
X67770000Y-119620000D02*
X70420000Y-119620000D01*
X67770000Y-122380000D02*
X67770000Y-119620000D01*
X67770000Y-122380000D02*
X70420000Y-122380000D01*
X70420000Y-122380000D02*
X70420000Y-119620000D01*
%TO.C,R2*%
X37630000Y-93540000D02*
X37630000Y-100080000D01*
X37630000Y-100080000D02*
X37960000Y-100080000D01*
X37960000Y-93540000D02*
X37630000Y-93540000D01*
X40040000Y-93540000D02*
X40370000Y-93540000D01*
X40370000Y-93540000D02*
X40370000Y-100080000D01*
X40370000Y-100080000D02*
X40040000Y-100080000D01*
%TD*%
M02*
