%TF.GenerationSoftware,KiCad,Pcbnew,9.0.5*%
%TF.CreationDate,2025-10-26T22:28:50+05:30*%
%TF.ProjectId,first pcb,66697273-7420-4706-9362-2e6b69636164,rev?*%
%TF.SameCoordinates,Original*%
%TF.FileFunction,Copper,L1,Top*%
%TF.FilePolarity,Positive*%
%FSLAX46Y46*%
G04 Gerber Fmt 4.6, Leading zero omitted, Abs format (unit mm)*
G04 Created by KiCad (PCBNEW 9.0.5) date 2025-10-26 22:28:50*
%MOMM*%
%LPD*%
G01*
G04 APERTURE LIST*
G04 Aperture macros list*
%AMRoundRect*
0 Rectangle with rounded corners*
0 $1 Rounding radius*
0 $2 $3 $4 $5 $6 $7 $8 $9 X,Y pos of 4 corners*
0 Add a 4 corners polygon primitive as box body*
4,1,4,$2,$3,$4,$5,$6,$7,$8,$9,$2,$3,0*
0 Add four circle primitives for the rounded corners*
1,1,$1+$1,$2,$3*
1,1,$1+$1,$4,$5*
1,1,$1+$1,$6,$7*
1,1,$1+$1,$8,$9*
0 Add four rect primitives between the rounded corners*
20,1,$1+$1,$2,$3,$4,$5,0*
20,1,$1+$1,$4,$5,$6,$7,0*
20,1,$1+$1,$6,$7,$8,$9,0*
20,1,$1+$1,$8,$9,$2,$3,0*%
G04 Aperture macros list end*
%TA.AperFunction,ComponentPad*%
%ADD10C,3.000000*%
%TD*%
%TA.AperFunction,ComponentPad*%
%ADD11C,2.500000*%
%TD*%
%TA.AperFunction,ComponentPad*%
%ADD12RoundRect,0.250000X-1.050000X1.050000X-1.050000X-1.050000X1.050000X-1.050000X1.050000X1.050000X0*%
%TD*%
%TA.AperFunction,ComponentPad*%
%ADD13C,2.600000*%
%TD*%
%TA.AperFunction,ComponentPad*%
%ADD14RoundRect,0.250000X1.050000X-1.050000X1.050000X1.050000X-1.050000X1.050000X-1.050000X-1.050000X0*%
%TD*%
%TA.AperFunction,ComponentPad*%
%ADD15C,5.600000*%
%TD*%
%TA.AperFunction,ComponentPad*%
%ADD16R,1.700000X1.700000*%
%TD*%
%TA.AperFunction,ComponentPad*%
%ADD17C,1.700000*%
%TD*%
%TA.AperFunction,ComponentPad*%
%ADD18R,1.524000X1.524000*%
%TD*%
%TA.AperFunction,ComponentPad*%
%ADD19C,1.524000*%
%TD*%
%TA.AperFunction,ComponentPad*%
%ADD20R,1.500000X1.050000*%
%TD*%
%TA.AperFunction,ComponentPad*%
%ADD21O,1.500000X1.050000*%
%TD*%
%TA.AperFunction,ComponentPad*%
%ADD22RoundRect,0.249999X-0.850001X0.850001X-0.850001X-0.850001X0.850001X-0.850001X0.850001X0.850001X0*%
%TD*%
%TA.AperFunction,ComponentPad*%
%ADD23C,2.200000*%
%TD*%
%TA.AperFunction,ComponentPad*%
%ADD24C,1.600000*%
%TD*%
%TA.AperFunction,ViaPad*%
%ADD25C,0.500000*%
%TD*%
%TA.AperFunction,ViaPad*%
%ADD26C,0.600000*%
%TD*%
%TA.AperFunction,Conductor*%
%ADD27C,1.000000*%
%TD*%
G04 APERTURE END LIST*
D10*
%TO.P,U$1,1,COM1*%
%TO.N,Net-(U$1-COM1)*%
X76500000Y-115000000D03*
D11*
%TO.P,U$1,2*%
%TO.N,Net-(Q2-E)*%
X78450000Y-121050000D03*
D10*
%TO.P,U$1,3*%
%TO.N,Net-(R4-P$1)*%
X90650000Y-121050000D03*
%TO.P,U$1,4*%
%TO.N,u$5*%
X90700000Y-109000000D03*
D11*
%TO.P,U$1,5,COIL1*%
%TO.N,Net-(U$1-COIL1)*%
X78450000Y-109050000D03*
%TD*%
D12*
%TO.P,lead_acid1,1,Pin_1*%
%TO.N,Net-(R1-P$1)*%
X33327500Y-82455000D03*
D13*
%TO.P,lead_acid1,2,Pin_2*%
%TO.N,Net-(D1-K)*%
X33327500Y-87535000D03*
%TD*%
D14*
%TO.P,load1,1,Pin_1*%
%TO.N,Net-(R4-P$3)*%
X102172500Y-87545000D03*
D13*
%TO.P,load1,2,Pin_2*%
%TO.N,Net-(U$6-COM1)*%
X102172500Y-82465000D03*
%TD*%
D14*
%TO.P,esp32,1,Pin_1*%
%TO.N,Net-(Q2-C)*%
X102500000Y-106580000D03*
D13*
%TO.P,esp32,2,Pin_2*%
%TO.N,Net-(Q2-B)*%
X102500000Y-101500000D03*
%TO.P,esp32,3,Pin_3*%
%TO.N,Net-(U$1-COIL1)*%
X102500000Y-96420000D03*
%TD*%
D15*
%TO.P,REF\u002A\u002A,1*%
%TO.N,N/C*%
X51500000Y-115500000D03*
%TD*%
D16*
%TO.P,R4,1,P$1*%
%TO.N,Net-(R4-P$1)*%
X55920000Y-121500000D03*
D17*
%TO.P,R4,2,P$2*%
%TO.N,Net-(R4-P$2)*%
X58460000Y-121500000D03*
%TO.P,R4,3,P$3*%
%TO.N,Net-(R4-P$3)*%
X61000000Y-121500000D03*
%TD*%
D18*
%TO.P,U1,1,OUT1*%
%TO.N,u$5*%
X64250000Y-97750000D03*
D19*
%TO.P,U1,2,-IN1*%
%TO.N,Net-(R2-Pad2)*%
X64250000Y-100290000D03*
%TO.P,U1,3,+IN1*%
%TO.N,Net-(R4-P$2)*%
X64250000Y-102830000D03*
%TO.P,U1,4,GND*%
%TO.N,Net-(Q1-E)*%
X64250000Y-105370000D03*
%TO.P,U1,5,+IN2*%
%TO.N,unconnected-(U1-+IN2-Pad5)*%
X72250000Y-105370000D03*
%TO.P,U1,6,-IN2*%
%TO.N,unconnected-(U1--IN2-Pad6)*%
X72250000Y-102830000D03*
%TO.P,U1,7,OUT2*%
%TO.N,unconnected-(U1-OUT2-Pad7)*%
X72250000Y-100290000D03*
%TO.P,U1,8,VCC*%
%TO.N,Net-(R4-P$1)*%
X72250000Y-97750000D03*
%TD*%
D10*
%TO.P,U$6,1,COM1*%
%TO.N,Net-(U$6-COM1)*%
X44800000Y-88000000D03*
D11*
%TO.P,U$6,2*%
%TO.N,Net-(R4-P$1)*%
X46750000Y-94050000D03*
D10*
%TO.P,U$6,3*%
X58950000Y-94050000D03*
%TO.P,U$6,4*%
%TO.N,Net-(D1-K)*%
X59000000Y-82000000D03*
D11*
%TO.P,U$6,5,COIL1*%
%TO.N,Net-(Q1-C)*%
X46750000Y-82050000D03*
%TD*%
D12*
%TO.P,solar1,1,Pin_1*%
%TO.N,Net-(D1-A)*%
X33500000Y-115000000D03*
D13*
%TO.P,solar1,2,Pin_2*%
%TO.N,Net-(R1-P$1)*%
X33500000Y-120080000D03*
%TD*%
D20*
%TO.P,Q2,1,E*%
%TO.N,Net-(Q2-E)*%
X91000000Y-102540000D03*
D21*
%TO.P,Q2,2,B*%
%TO.N,Net-(Q2-B)*%
X91000000Y-101270000D03*
%TO.P,Q2,3,C*%
%TO.N,Net-(Q2-C)*%
X91000000Y-100000000D03*
%TD*%
D20*
%TO.P,Q1,1,E*%
%TO.N,Net-(Q1-E)*%
X81360000Y-102770000D03*
D21*
%TO.P,Q1,2,B*%
%TO.N,Net-(Q1-B)*%
X81360000Y-101500000D03*
%TO.P,Q1,3,C*%
%TO.N,Net-(Q1-C)*%
X81360000Y-100230000D03*
%TD*%
D22*
%TO.P,D1,1,K*%
%TO.N,Net-(D1-K)*%
X33500000Y-96420000D03*
D23*
%TO.P,D1,2,A*%
%TO.N,Net-(D1-A)*%
X33500000Y-106580000D03*
%TD*%
D10*
%TO.P,U$5,1,COM1*%
%TO.N,Net-(U$1-COM1)*%
X76300000Y-87500000D03*
D11*
%TO.P,U$5,2*%
%TO.N,Net-(R4-P$1)*%
X78250000Y-93550000D03*
D10*
%TO.P,U$5,3*%
X90450000Y-93550000D03*
D11*
%TO.P,U$5,5,COIL1*%
%TO.N,Net-(S1-COM)*%
X78250000Y-81550000D03*
D10*
%TO.P,U$5,7*%
%TO.N,u$5*%
X90500000Y-81500000D03*
%TD*%
D24*
%TO.P,R6,1,1*%
%TO.N,Net-(R4-P$1)*%
X53690000Y-98000000D03*
%TO.P,R6,2,2*%
%TO.N,u$5*%
X61310000Y-98000000D03*
%TD*%
%TO.P,R5,1,1*%
%TO.N,Net-(Q1-B)*%
X68000000Y-89810000D03*
%TO.P,R5,2,2*%
%TO.N,Net-(U$1-COM1)*%
X68000000Y-82190000D03*
%TD*%
D16*
%TO.P,R1,1,P$1*%
%TO.N,Net-(R1-P$1)*%
X44460000Y-122000000D03*
D17*
%TO.P,R1,2,P$2*%
%TO.N,Net-(R1-P$2)*%
X47000000Y-122000000D03*
%TO.P,R1,3,P$3*%
%TO.N,Net-(D1-A)*%
X49540000Y-122000000D03*
%TD*%
D14*
%TO.P,main_supply1,1,Pin_1*%
%TO.N,Net-(R4-P$1)*%
X102172500Y-120045000D03*
D13*
%TO.P,main_supply1,2,Pin_2*%
%TO.N,Net-(Q1-E)*%
X102172500Y-114965000D03*
%TD*%
D24*
%TO.P,R3,1,1*%
%TO.N,Net-(R2-Pad2)*%
X39000000Y-103190000D03*
%TO.P,R3,2,2*%
%TO.N,Net-(Q1-E)*%
X39000000Y-110810000D03*
%TD*%
D16*
%TO.P,S1,1,NC*%
%TO.N,Net-(Q1-E)*%
X66500000Y-121000000D03*
D17*
%TO.P,S1,2*%
%TO.N,Net-(S1-COM)*%
X69040000Y-121000000D03*
%TD*%
D24*
%TO.P,R2,1,1*%
%TO.N,Net-(R1-P$2)*%
X39000000Y-93000000D03*
%TO.P,R2,2,2*%
%TO.N,Net-(R2-Pad2)*%
X39000000Y-100620000D03*
%TD*%
D25*
%TO.N,Net-(R1-P$2)*%
X47000000Y-97500000D03*
D26*
%TO.N,Net-(Q2-E)*%
X87500000Y-108000000D03*
%TO.N,Net-(R4-P$1)*%
X66000000Y-90500000D03*
X68500000Y-111000000D03*
X56000000Y-116000000D03*
%TO.N,Net-(Q1-E)*%
X83500000Y-106500000D03*
%TD*%
D27*
%TO.N,Net-(D1-K)*%
X36500000Y-80500000D02*
X37201000Y-79799000D01*
X33500000Y-96420000D02*
X35080000Y-96420000D01*
X37201000Y-79799000D02*
X56799000Y-79799000D01*
X36500000Y-95000000D02*
X36500000Y-80500000D01*
X35080000Y-96420000D02*
X36500000Y-95000000D01*
X56799000Y-79799000D02*
X59000000Y-82000000D01*
%TO.N,Net-(Q1-C)*%
X53050000Y-82050000D02*
X64000000Y-93000000D01*
X65500000Y-93000000D02*
X66500000Y-92000000D01*
X68500000Y-92000000D02*
X72787000Y-96287000D01*
X46750000Y-82050000D02*
X53050000Y-82050000D01*
X66500000Y-92000000D02*
X68500000Y-92000000D01*
X64000000Y-93000000D02*
X65500000Y-93000000D01*
X77417000Y-96287000D02*
X81360000Y-100230000D01*
X72787000Y-96287000D02*
X77417000Y-96287000D01*
%TO.N,Net-(R1-P$2)*%
X42500000Y-93000000D02*
X47000000Y-97500000D01*
X39000000Y-93000000D02*
X42500000Y-93000000D01*
%TO.N,Net-(S1-COM)*%
X78500000Y-78500000D02*
X108500000Y-78500000D01*
X78250000Y-81550000D02*
X78250000Y-78750000D01*
X78250000Y-78750000D02*
X78500000Y-78500000D01*
X71540000Y-123500000D02*
X69040000Y-121000000D01*
X108500000Y-78500000D02*
X108500000Y-123500000D01*
X108500000Y-123500000D02*
X71540000Y-123500000D01*
%TO.N,Net-(Q2-E)*%
X87450000Y-121050000D02*
X87500000Y-121000000D01*
X78450000Y-121050000D02*
X87450000Y-121050000D01*
X87500000Y-121000000D02*
X87500000Y-108000000D01*
%TO.N,Net-(U$1-COM1)*%
X76500000Y-115000000D02*
X76300000Y-114800000D01*
%TO.N,Net-(Q2-C)*%
X91000000Y-100000000D02*
X91000000Y-99500000D01*
X96500000Y-98500000D02*
X98500000Y-100500000D01*
X98500000Y-104500000D02*
X102500000Y-104500000D01*
X91000000Y-99500000D02*
X92000000Y-98500000D01*
X102500000Y-104500000D02*
X102500000Y-106580000D01*
X98500000Y-100500000D02*
X98500000Y-104500000D01*
X92000000Y-98500000D02*
X96500000Y-98500000D01*
%TO.N,Net-(U$1-COIL1)*%
X86000000Y-99000000D02*
X88580000Y-96420000D01*
X82500000Y-105000000D02*
X85000000Y-105000000D01*
X85000000Y-105000000D02*
X86000000Y-104000000D01*
X78450000Y-109050000D02*
X82500000Y-105000000D01*
X88580000Y-96420000D02*
X102500000Y-96420000D01*
X86000000Y-104000000D02*
X86000000Y-99000000D01*
%TO.N,Net-(R4-P$1)*%
X106000000Y-93500000D02*
X106000000Y-116500000D01*
X61000000Y-111000000D02*
X56000000Y-116000000D01*
X56000000Y-121420000D02*
X55920000Y-121500000D01*
X106000000Y-116500000D02*
X102455000Y-120045000D01*
X68750000Y-97750000D02*
X72250000Y-97750000D01*
X90450000Y-93550000D02*
X105950000Y-93550000D01*
X68500000Y-111000000D02*
X61000000Y-111000000D01*
X78250000Y-93550000D02*
X75050000Y-93550000D01*
X75050000Y-93550000D02*
X68500000Y-87000000D01*
X105950000Y-93550000D02*
X106000000Y-93500000D01*
X66000000Y-95000000D02*
X68750000Y-97750000D01*
X58950000Y-94050000D02*
X59900000Y-95000000D01*
X72250000Y-97750000D02*
X68500000Y-101500000D01*
X102455000Y-120045000D02*
X102172500Y-120045000D01*
X68500000Y-101500000D02*
X68500000Y-111000000D01*
X66000000Y-87000000D02*
X66000000Y-90500000D01*
X59900000Y-95000000D02*
X66000000Y-95000000D01*
X68500000Y-87000000D02*
X66000000Y-87000000D01*
X56000000Y-116000000D02*
X56000000Y-121420000D01*
%TO.N,Net-(Q1-E)*%
X96000000Y-106500000D02*
X83500000Y-106500000D01*
X64120000Y-105500000D02*
X64250000Y-105370000D01*
X96000000Y-110500000D02*
X96000000Y-106500000D01*
X102172500Y-114965000D02*
X102172500Y-110672500D01*
X39000000Y-110810000D02*
X51690000Y-110810000D01*
X102172500Y-110672500D02*
X102000000Y-110500000D01*
X51690000Y-110810000D02*
X57000000Y-105500000D01*
X102000000Y-110500000D02*
X96000000Y-110500000D01*
X57000000Y-105500000D02*
X64120000Y-105500000D01*
%TO.N,Net-(R2-Pad2)*%
X39000000Y-100620000D02*
X39120000Y-100620000D01*
X39120000Y-100620000D02*
X39450000Y-100290000D01*
X64250000Y-100290000D02*
X39330000Y-100290000D01*
X39330000Y-100290000D02*
X39000000Y-100620000D01*
%TD*%
M02*
